<region> lovel=1 hivel=4 amp_velcurve_4=1 sample=../samples/_nsmr/pre_roll/sn12bop/stx/open/snare_off/sn12bop_p50_stx_xtk_b001.wav
<region> lovel=5 hivel=8 amp_velcurve_8=1 sample=../samples/_nsmr/pre_roll/sn12bop/stx/open/snare_off/sn12bop_p50_stx_xtk_b002.wav
<region> lovel=9 hivel=12 amp_velcurve_12=1 sample=../samples/_nsmr/pre_roll/sn12bop/stx/open/snare_off/sn12bop_p50_stx_xtk_b003.wav
<region> lovel=13 hivel=16 amp_velcurve_16=1 sample=../samples/_nsmr/pre_roll/sn12bop/stx/open/snare_off/sn12bop_p50_stx_xtk_b004.wav
<region> lovel=17 hivel=20 amp_velcurve_20=1 sample=../samples/_nsmr/pre_roll/sn12bop/stx/open/snare_off/sn12bop_p50_stx_xtk_b005.wav
<region> lovel=21 hivel=24 amp_velcurve_24=1 sample=../samples/_nsmr/pre_roll/sn12bop/stx/open/snare_off/sn12bop_p50_stx_xtk_b006.wav
<region> lovel=25 hivel=28 amp_velcurve_28=1 sample=../samples/_nsmr/pre_roll/sn12bop/stx/open/snare_off/sn12bop_p50_stx_xtk_b007.wav
<region> lovel=29 hivel=32 amp_velcurve_32=1 sample=../samples/_nsmr/pre_roll/sn12bop/stx/open/snare_off/sn12bop_p50_stx_xtk_b008.wav
<region> lovel=33 hivel=36 amp_velcurve_36=1 sample=../samples/_nsmr/pre_roll/sn12bop/stx/open/snare_off/sn12bop_p50_stx_xtk_b009.wav
<region> lovel=37 hivel=40 amp_velcurve_40=1 sample=../samples/_nsmr/pre_roll/sn12bop/stx/open/snare_off/sn12bop_p50_stx_xtk_b010.wav
<region> lovel=41 hivel=44 amp_velcurve_44=1 sample=../samples/_nsmr/pre_roll/sn12bop/stx/open/snare_off/sn12bop_p50_stx_xtk_b011.wav
<region> lovel=45 hivel=48 amp_velcurve_48=1 sample=../samples/_nsmr/pre_roll/sn12bop/stx/open/snare_off/sn12bop_p50_stx_xtk_b012.wav
<region> lovel=49 hivel=52 amp_velcurve_52=1 sample=../samples/_nsmr/pre_roll/sn12bop/stx/open/snare_off/sn12bop_p50_stx_xtk_b013.wav
<region> lovel=53 hivel=56 amp_velcurve_56=1 sample=../samples/_nsmr/pre_roll/sn12bop/stx/open/snare_off/sn12bop_p50_stx_xtk_b014.wav
<region> lovel=57 hivel=60 amp_velcurve_60=1 sample=../samples/_nsmr/pre_roll/sn12bop/stx/open/snare_off/sn12bop_p50_stx_xtk_b015.wav
<region> lovel=61 hivel=64 amp_velcurve_64=1 sample=../samples/_nsmr/pre_roll/sn12bop/stx/open/snare_off/sn12bop_p50_stx_xtk_b016.wav
<region> lovel=65 hivel=68 amp_velcurve_68=1 sample=../samples/_nsmr/pre_roll/sn12bop/stx/open/snare_off/sn12bop_p50_stx_xtk_b017.wav
<region> lovel=69 hivel=72 amp_velcurve_72=1 sample=../samples/_nsmr/pre_roll/sn12bop/stx/open/snare_off/sn12bop_p50_stx_xtk_b018.wav
<region> lovel=73 hivel=76 amp_velcurve_76=1 sample=../samples/_nsmr/pre_roll/sn12bop/stx/open/snare_off/sn12bop_p50_stx_xtk_b019.wav
<region> lovel=77 hivel=80 amp_velcurve_80=1 sample=../samples/_nsmr/pre_roll/sn12bop/stx/open/snare_off/sn12bop_p50_stx_xtk_b020.wav
<region> lovel=81 hivel=84 amp_velcurve_84=1 sample=../samples/_nsmr/pre_roll/sn12bop/stx/open/snare_off/sn12bop_p50_stx_xtk_b021.wav
<region> lovel=85 hivel=88 amp_velcurve_88=1 sample=../samples/_nsmr/pre_roll/sn12bop/stx/open/snare_off/sn12bop_p50_stx_xtk_b022.wav
<region> lovel=89 hivel=92 amp_velcurve_92=1 sample=../samples/_nsmr/pre_roll/sn12bop/stx/open/snare_off/sn12bop_p50_stx_xtk_b023.wav
<region> lovel=93 hivel=96 amp_velcurve_96=1 sample=../samples/_nsmr/pre_roll/sn12bop/stx/open/snare_off/sn12bop_p50_stx_xtk_b024.wav
<region> lovel=97 hivel=100 amp_velcurve_100=1 sample=../samples/_nsmr/pre_roll/sn12bop/stx/open/snare_off/sn12bop_p50_stx_xtk_b025.wav
<region> lovel=101 hivel=104 amp_velcurve_104=1 sample=../samples/_nsmr/pre_roll/sn12bop/stx/open/snare_off/sn12bop_p50_stx_xtk_b026.wav
<region> lovel=105 hivel=108 amp_velcurve_108=1 sample=../samples/_nsmr/pre_roll/sn12bop/stx/open/snare_off/sn12bop_p50_stx_xtk_b027.wav
<region> lovel=109 hivel=112 amp_velcurve_112=1 sample=../samples/_nsmr/pre_roll/sn12bop/stx/open/snare_off/sn12bop_p50_stx_xtk_b028.wav
<region> lovel=113 hivel=117 amp_velcurve_117=1 sample=../samples/_nsmr/pre_roll/sn12bop/stx/open/snare_off/sn12bop_p50_stx_xtk_b029.wav
<region> lovel=118 hivel=122 amp_velcurve_122=1 sample=../samples/_nsmr/pre_roll/sn12bop/stx/open/snare_off/sn12bop_p50_stx_xtk_b030.wav
<region> lovel=123 hivel=127 amp_velcurve_127=1 sample=../samples/_nsmr/pre_roll/sn12bop/stx/open/snare_off/sn12bop_p50_stx_xtk_b031.wav
